{"title":"Avengers Age Of Ultron (2015) 1080p Blu-ray DTS-HDMA x264-DDR","uid":12427332,"size":13726051135,"categoryP":"video","categoryS":"hd___movies","magnet":"?xt=urn:btih:79b96fdbb983613db0ac5a23caf330d99e696289&amp;dn=Avengers+Age+Of+Ultron+%282015%29+1080p+Blu-ray+DTS-HDMA+x264-DDR&amp;tr=udp%3A%2F%2Ftracker.openbittorrent.com%3A80&amp;tr=udp%3A%2F%2Fopen.demonii.com%3A1337&amp;tr=udp%3A%2F%2Ftracker.coppersurfer.tk%3A6969&amp;tr=udp%3A%2F%2Fexodus.desync.com%3A6969","seeders":25,"leechers":83,"uploader":"SaM","files":4,"time":1442402206,"description":"\n1080p Blu-ray Rip x264\n\nDual Audio\nEnglish Untouched DTS-HDMA 7.1\nHindi Untouched 5.1 AC3\n\nEnglish Director's Commentary Subtitle\n&amp;\nEnglish Hearing Impaired Subtitle \n &lt;a href=&quot;\nhttp://extraimago.com/image/iH1&quot; rel=&quot;nofollow&quot; target=&quot;_NEW&quot;&gt;\nhttp://extraimago.com/image/iH1&lt;/a&gt; &lt;a href=&quot;\nhttp://extraimago.com/image/iHE&quot; rel=&quot;nofollow&quot; target=&quot;_NEW&quot;&gt;\nhttp://extraimago.com/image/iHE&lt;/a&gt; &lt;a href=&quot;\nhttp://extraimago.com/image/iHO&quot; rel=&quot;nofollow&quot; target=&quot;_NEW&quot;&gt;\nhttp://extraimago.com/image/iHO&lt;/a&gt; &lt;a href=&quot;\nhttp://extraimago.com/image/iHS&quot; rel=&quot;nofollow&quot; target=&quot;_NEW&quot;&gt;\nhttp://extraimago.com/image/iHS&lt;/a&gt; &lt;a href=&quot;\nhttp://extraimago.com/image/iHq&quot; rel=&quot;nofollow&quot; target=&quot;_NEW&quot;&gt;\nhttp://extraimago.com/image/iHq&lt;/a&gt; &lt;a href=&quot;\nhttp://extraimago.com/image/iHy&quot; rel=&quot;nofollow&quot; target=&quot;_NEW&quot;&gt;\nhttp://extraimago.com/image/iHy&lt;/a&gt; &lt;a href=&quot;\nhttp://extraimago.com/image/iHL&quot; rel=&quot;nofollow&quot; target=&quot;_NEW&quot;&gt;\nhttp://extraimago.com/image/iHL&lt;/a&gt; &lt;a href=&quot;\nhttp://extraimago.com/image/iHQ&quot; rel=&quot;nofollow&quot; target=&quot;_NEW&quot;&gt;\nhttp://extraimago.com/image/iHQ&lt;/a&gt; &lt;a href=&quot;\nhttp://extraimago.com/image/iHR&quot; rel=&quot;nofollow&quot; target=&quot;_NEW&quot;&gt;\nhttp://extraimago.com/image/iHR&lt;/a&gt; &lt;a href=&quot;\nhttp://extraimago.com/image/iHm&quot; rel=&quot;nofollow&quot; target=&quot;_NEW&quot;&gt;\nhttp://extraimago.com/image/iHm&lt;/a&gt; &lt;a href=&quot;\nhttp://extraimago.com/image/iHi&quot; rel=&quot;nofollow&quot; target=&quot;_NEW&quot;&gt;\nhttp://extraimago.com/image/iHi&lt;/a&gt; &lt;a href=&quot;\nhttp://extraimago.com/image/iHl&quot; rel=&quot;nofollow&quot; target=&quot;_NEW&quot;&gt;\nhttp://extraimago.com/image/iHl&lt;/a&gt; &lt;a href=&quot;\nhttp://extraimago.com/image/iHI&quot; rel=&quot;nofollow&quot; target=&quot;_NEW&quot;&gt;\nhttp://extraimago.com/image/iHI&lt;/a&gt; &lt;a href=&quot;\nhttp://extraimago.com/image/iHd&quot; rel=&quot;nofollow&quot; target=&quot;_NEW&quot;&gt;\nhttp://extraimago.com/image/iHd&lt;/a&gt;\n\n]Specs:\nSource: BD50 @ LAZERS\n\nFormat : Matroska\nFile size : 12.7 GiB\nDuration : 2h 21mn\nOverall bit rate mode : Variable\nOverall bit rate : 12.9 Mbps\n\nVideo\nFormat : AVC\nFormat profile : &lt;a class=&quot;__cf_email__&quot; href=&quot;/cdn-cgi/l/email-protection&quot; data-cfemail=&quot;dd95b4bab59d91e9f3ec&quot;&gt;[email&amp;#160;protected]&lt;/a&gt;&lt;script data-cfhash='f9e31' type=&quot;text/javascript&quot;&gt;\n/* &lt;![CDATA[ */!function(){try{var t=&quot;currentScript&quot;in document?document.currentScript:function(){for(var t=document.getElementsByTagName(&quot;script&quot;),e=t.length;e--;)if(t[e].getAttribute(&quot;data-cfhash&quot;))return t[e]}();if(t&amp;&amp;t.previousSibling){var e,r,n,i,c=t.previousSibling,a=c.getAttribute(&quot;data-cfemail&quot;);if(a){for(e=&quot;&quot;,r=parseInt(a.substr(0,2),16),n=2;a.length-n;n+=2)i=parseInt(a.substr(n,2),16)^r,e+=String.fromCharCode(i);e=document.createTextNode(e),c.parentNode.replaceChild(e,c)}t.parentNode.removeChild(t);}}catch(u){}}()/* ]]&gt; */&lt;/script&gt;\nNominal bit rate : 8 000 Kbps\nWidth : 1 920 pixels\nHeight : 800 pixels\nDisplay aspect ratio : 2.40:1\nFrame rate mode : Constant\nFrame rate : 23.976 fps\nColor space : YUV\nChroma subsampling : 4:2:0\nBit depth : 8 bits\nScan type : Progressive\n\nAudio #1\nFormat : DTS\nFormat/Info : Digital Theater Systems\nFormat profile : MA / Core\nBit rate mode : Variable\nBit rate : 4.2 Mbps / 1 509 Kbps\nChannel(s) : 8 channels / 6 channels\nChannel positions : Front: L C R, Side: L R, Back: L R, LFE / Front: L C R, Side: L R, LFE\nSampling rate : 48.0 KHz\nBit depth : 24 bits\nCompression mode : Lossless / Lossy\nStream size : 4.17 GiB\nLanguage : English\nDefault : Yes\nForced : No\n\nAudio #2\nFormat : AC-3\nBit rate mode : Constant\nBit rate : 640 Kbps\nChannel(s) : 6 channels\nChannel positions : Front: L C R, Side: L R, LFE\nSampling rate : 48.0 KHz\nBit depth : 16 bits\nCompression mode : Lossy\nStream size : 647 MiB (5%)\nLanguage : Hindi\nDefault : No\nForced : No\n\nLanguage : Hindi &amp; English\nChapters : YES\n\nSAMPLE Included\n\nA DDR Exclusive Encode","torrent":{"xt":"urn:btih:79b96fdbb983613db0ac5a23caf330d99e696289","amp;dn":"Avengers+Age+Of+Ultron+%282015%29+1080p+Blu-ray+DTS-HDMA+x264-DDR","amp;tr":["udp%3A%2F%2Ftracker.openbittorrent.com%3A80","udp%3A%2F%2Fopen.demonii.com%3A1337","udp%3A%2F%2Ftracker.coppersurfer.tk%3A6969","udp%3A%2F%2Fexodus.desync.com%3A6969"],"infoHash":"79b96fdbb983613db0ac5a23caf330d99e696289","infoHashBuffer":{"type":"Buffer","data":[121,185,111,219,185,131,97,61,176,172,90,35,202,243,48,217,158,105,98,137]},"announce":[],"urlList":[]}}